<svg xmlns="http://www.w3.org/2000/svg" viewBox="0 0 72 71.92"><defs><style>.cls-1{fill:#8cbf43;}</style></defs><title>icon-cart</title><g id="Layer_2" data-name="Layer 2"><g id="Layer_1-2" data-name="Layer 1"><path class="cls-1" d="M69.9,13.93H53.21A13.55,13.55,0,0,0,48.6,4.54a17,17,0,0,0-23.12,0,13.51,13.51,0,0,0-4.61,9.37H4.18C2.45,13.91,0,14.83,0,16.2v53c0,1.37,2.45,2.72,4.18,2.72H69.9c1.73,0,2.1-1.36,2.1-2.74v-53C72,14.85,71.63,13.93,69.9,13.93ZM37,2.61c6.81,0,12.43,4.32,13.07,11.32H24C24.62,6.93,30.24,2.61,37,2.61Z"/></g></g></svg>