<svg id="NAVIGATION" xmlns="http://www.w3.org/2000/svg" xmlns:xlink="http://www.w3.org/1999/xlink" viewBox="0 0 72 72"><defs><style>.cls-1{fill:none;}.cls-2{clip-path:url(#clip-path);}.cls-3{fill:#ed1c24;}.cls-4{fill:#fff;}.cls-5{fill:#00a651;}</style><clipPath id="clip-path"><circle class="cls-1" cx="36" cy="36" r="36"/></clipPath></defs><title>Zaatar w Zeit ®</title><g id="bottom_navigation" data-name="bottom navigation"><g class="cls-2"><rect id="_3" data-name="3" class="cls-3" x="-18" width="108" height="72"/><rect id="_2" data-name="2" class="cls-4" x="-18" y="18" width="108" height="36"/><path id="_1" data-name="1" class="cls-5" d="M35.51,18l-0.59,1a7.39,7.39,0,0,1-1.75,1.8,10.83,10.83,0,0,0-1.7,1.49l-0.56.67,0.59-.15a8.77,8.77,0,0,0,.94-0.3c0.19-.08.35,0,0.35,0.1h0v0a4.24,4.24,0,0,1-1.9,1.48,5.7,5.7,0,0,0-2.06,1.48v0h0a1,1,0,0,0,.62,0c0.5-.11.71,0,0.87,0.3,0.25,0.52.11,0.76-.48,0.76A2.24,2.24,0,0,0,28,28.09a2,2,0,0,1-1.3,1.11,10.11,10.11,0,0,0-3.22,2.16,0.16,0.16,0,0,0,0,0c0,0.51,1.14.48,2.79-.09,0.37-.13.53,0,0.81,0.64,0.35,0.79.34,0.8-.46,1.84A2.85,2.85,0,0,1,25,35c-1.07.22-1.4,0.44-2.78,1.82A6,6,0,0,1,20.79,38a0.2,0.2,0,0,0-.12,0h0a2.09,2.09,0,0,0,1.25.61A4.12,4.12,0,0,0,23.54,38c1-.74,1.09-0.75,1.51-0.33a1.68,1.68,0,0,1,.44,1c0,0.49-.26.72-1.63,1.41a13.37,13.37,0,0,0-3.13,2.33c-1.25,1.25-1.6,1.48-2.13,1.39a1.45,1.45,0,0,0-.58,0h0v0a1.22,1.22,0,0,0,.31.42,1.51,1.51,0,0,0,1,.38,13.84,13.84,0,0,0,4.91-1.83,2.09,2.09,0,0,1,2.4-.37c1.08,0.64-.72,1.92-4.12,2.93a24.07,24.07,0,0,0-2.47.82h0a0.6,0.6,0,0,0,.17.49c0.35,0.47,2.14.49,3.66,0a36.25,36.25,0,0,0,3.37-1.36c2.26-1,2.26-1,3.05-.61,1.83,1,1.66,2.64-.54,5.4a5.39,5.39,0,0,1-3.36,2.12,3.4,3.4,0,0,0-1.75,1.65,0.3,0.3,0,0,0,0,.1H25a1.31,1.31,0,0,0,.26-0.27,3.2,3.2,0,0,1,2.47-1.09,5.44,5.44,0,0,0,3.4-1.53c0.87-.81,1.75-1.06,2.42-0.67a1.2,1.2,0,0,0,1.15.07c0.79-.3,1.18-0.15,1.18.44a1.19,1.19,0,0,0,.66.84A9,9,0,0,1,38,52.92a1.4,1.4,0,0,0,.69.46h0.09v0s0,0,0,0a1.7,1.7,0,0,0-.34-0.81,1,1,0,0,1-.2-0.58v0h0a7.14,7.14,0,0,1,1.67.07,2.66,2.66,0,0,1,2.41,1.21,3.5,3.5,0,0,0,1,.9h0.56a0.38,0.38,0,0,0,.23-0.21h0a11.92,11.92,0,0,0-1.88-1.79c-2.27-1.9-2.62-2.59-2.63-5.22,0-1.57.07-2,.44-2.38,0.57-.63.89-0.62,2.29,0.12,1.06,0.55,1.39.6,3.81,0.55,2.59-.06,2.67,0,4,0.73,0.73,0.43,1.62,1,2,1.28,0.81,0.61,1.62.65,1.82,0.09s-1.3-1.93-4.18-3.46S46.63,41.7,48,41c0.75-.39.8-0.39,2,0.28a2.61,2.61,0,0,0,2,.52l0.78-.16L51,40.23a20.46,20.46,0,0,1-2-1.83,3.12,3.12,0,0,0-2.43-1.12,1.91,1.91,0,0,1-1-.19h0c-0.27-.48.54-0.71,2.8-0.8,3-.12,3.46-0.47,1.36-1.15-0.84-.27-2.09-0.61-2.79-0.76a2.3,2.3,0,0,1-1.44-.61,0.26,0.26,0,0,1,0-.15,0.48,0.48,0,0,1,.14-0.25,3.53,3.53,0,0,1,2,.06c1.3,0.22,2,.27,2.15.12s-0.47-.61-1.79-1.34a18.92,18.92,0,0,1-3.43-2.44A10.62,10.62,0,0,0,42.22,28c-0.74-.35-1-0.58-0.88-0.86,0.17-.48,1.32-0.48,2.07,0a4.11,4.11,0,0,0,1.77.34h1.22l-0.81-.33a12.89,12.89,0,0,1-3.17-2.24v0h0a3.48,3.48,0,0,1,1.2-.06l1.22,0.07L43.1,23.51a7.26,7.26,0,0,0-3-1.61l-1.73-.38A5.21,5.21,0,0,1,35.94,19Zm-4,6.83H31.6a0.6,0.6,0,0,1,.46.14h0l0,0h0s0,0,0,0h0v0h0a1.75,1.75,0,0,1-.57.64,0.84,0.84,0,0,1-.4.22h0A1,1,0,0,1,31,25.47C31,25,31.11,24.84,31.51,24.83Zm5.92,0.61h0a0.56,0.56,0,0,1,.62.43c0.06,0.33-.08.43-0.62,0.43a0.85,0.85,0,0,1-.57-0.12,0.34,0.34,0,0,1-.05-0.31A0.56,0.56,0,0,1,37.43,25.44Zm-1.73.15c0.3,0,.42.15,0.42,0.53s-0.17.6-1,.81a3,3,0,0,1-1.1.15h0c-0.29-.31,0-0.72.67-1.09A3,3,0,0,1,35.7,25.58Zm4,0c0.44,0,.5.19,0.28,0.81a0.74,0.74,0,0,1-.68.38c-0.44,0-.53-0.11-0.48-0.55a0.65,0.65,0,0,1,.68-0.63ZM33,26.78h0c0.53,0,.2,1-0.48,1.47a1.72,1.72,0,0,1-1.44.43h0l0,0h0v0h0v0h0A3.07,3.07,0,0,1,33,26.78Zm5,2.33c0.25,0,.41.25,0.33,0.76a0.71,0.71,0,0,1-.68.53,0.67,0.67,0,0,1-.54-0.06h0v0a1.39,1.39,0,0,1,.42-0.8A0.85,0.85,0,0,1,38,29.11Zm-2,.11h0c0.51,0,.59.45,0.13,0.72a2.11,2.11,0,0,1-.49.23h0L35,30l-0.55-.19,0.62-.28A3.45,3.45,0,0,1,36,29.22Zm4.29,0.56a1.73,1.73,0,0,1,.76.14,0.63,0.63,0,0,1,.46.87c-0.12.69-.49,0.76-1.78,0.36-0.63-.2-0.69-0.3-0.49-0.71A1.2,1.2,0,0,1,40.27,29.78ZM30.76,30h0c0.93,0,1.06.16,0.61,0.76a5,5,0,0,1-.65.67c-0.31.26-.41,0.23-0.61-0.18a1.18,1.18,0,0,1-.2-1A0.91,0.91,0,0,1,30.76,30Zm-2.46.41a1,1,0,0,1,1,.72l0.45,0.77L29,32.11c-0.61.23-.71,0.19-1.21-0.52a1.12,1.12,0,0,1-.35-0.93l0-.05h0a1.16,1.16,0,0,1,.69-0.21H28.3ZM43,32.66a0.72,0.72,0,0,1,.83.78,0.77,0.77,0,0,1-1.35.36c-0.34-.28-0.35-0.38-0.09-0.78A0.8,0.8,0,0,1,43,32.66Zm-8.34,1.19h0.05l0.1,0,0.06,0h0a0.6,0.6,0,0,1,.06.44c-0.09.66-.52,0.85-0.71,0.31S34.26,33.88,34.66,33.86Zm-2.79.51a1.23,1.23,0,0,1,.8.36,0.67,0.67,0,0,1,.29.47v0.1h0l0,0h0a0.63,0.63,0,0,1-.71-0.16,1.36,1.36,0,0,1-.49-0.59h0A0.19,0.19,0,0,1,31.87,34.36Zm4.43,0.09a0.53,0.53,0,0,1,.33.24,2.68,2.68,0,0,1,.49.89c0.19,0.68-.11,1-0.71.65A0.91,0.91,0,0,1,36,34.8,0.64,0.64,0,0,1,36.3,34.46Zm1.55,0.92a0.62,0.62,0,0,1,.44.64,0.66,0.66,0,0,1-.08.51H38.16c-0.32,0-.5-0.29-0.5-0.79A0.32,0.32,0,0,1,37.84,35.37Zm-9.71,1a4.33,4.33,0,0,1,.8.06,1.22,1.22,0,0,1,.62.26l0.05,0.07v0a0.24,0.24,0,0,1,0,.08,1.48,1.48,0,0,1-.82.69,6.82,6.82,0,0,1-1.58.56c-0.75.14-.85,0.09-1.16-0.58a5.33,5.33,0,0,1-.34-0.84h0A7.11,7.11,0,0,1,28.13,36.35ZM43.2,38.54c0.87,0,1.34.55,0.4,1.28a1.71,1.71,0,0,1-2.06,0c-0.4-.32-0.38-0.37.35-0.86A2.62,2.62,0,0,1,43.2,38.54Zm3.18,0.69h0a1.51,1.51,0,0,1,.66.34c0.42,0.34.42,0.36-.11,1a2.32,2.32,0,0,1-.65.59h0c-0.07,0-.45-0.08-0.85-0.14a0.69,0.69,0,0,1-.72-0.45v0A3,3,0,0,1,46.37,39.23Zm-16,1h0.14c0.6,0,.93.49,0.93,1.39,0,1.21-.74,1.11-1.07-0.14C30.1,40.37,30.07,40.22,30.4,40.2ZM35,40.55a3.17,3.17,0,0,1,1.35.33h0a3.88,3.88,0,0,1-.53.85l-0.52.7L35,41.56a3.78,3.78,0,0,1-.2-1h0Zm-2.22.4a1.51,1.51,0,0,1,.31,0,0.73,0.73,0,0,1,.59.53,0.92,0.92,0,0,1-.05.63l0,0,0,0h0l-0.05,0H33.41a0.87,0.87,0,0,1-.51-0.56A1.49,1.49,0,0,1,32.66,41v0Z"/></g></g></svg>