<svg id="NAVIGATION" xmlns="http://www.w3.org/2000/svg" viewBox="0 0 60.07 72"><defs><style>.cls-1{fill:gray;}</style></defs><title>ZWZ App - iconsonly</title><g id="bottom_navigation" data-name="bottom navigation"><path class="cls-1" d="M29.58,34.68A16.78,16.78,0,0,0,41.84,29.6a16.78,16.78,0,0,0,5.08-12.26A16.78,16.78,0,0,0,41.84,5.08,16.78,16.78,0,0,0,29.58,0,16.78,16.78,0,0,0,17.32,5.08a16.78,16.78,0,0,0-5.08,12.26A16.78,16.78,0,0,0,17.32,29.6,16.79,16.79,0,0,0,29.58,34.68ZM20.3,8.06a12.53,12.53,0,0,1,9.28-3.84,12.54,12.54,0,0,1,9.28,3.84,12.54,12.54,0,0,1,3.84,9.28,12.54,12.54,0,0,1-3.84,9.28,12.54,12.54,0,0,1-9.28,3.84,12.54,12.54,0,0,1-9.28-3.84,12.53,12.53,0,0,1-3.85-9.28A12.54,12.54,0,0,1,20.3,8.06Z"/><path class="cls-1" d="M59.92,55.36a42.83,42.83,0,0,0-.58-4.55,35.84,35.84,0,0,0-1.12-4.57A22.6,22.6,0,0,0,56.34,42a16.08,16.08,0,0,0-2.84-3.7,12.5,12.5,0,0,0-4.07-2.56,14.08,14.08,0,0,0-5.2-.94A5.28,5.28,0,0,0,41.41,36l-2.94,1.89a16.82,16.82,0,0,1-3.8,1.67,14.75,14.75,0,0,1-9.29,0,16.77,16.77,0,0,1-3.8-1.67L18.65,36a5.27,5.27,0,0,0-2.82-1.2,14.06,14.06,0,0,0-5.2.94,12.49,12.49,0,0,0-4.07,2.56A16.08,16.08,0,0,0,3.73,42a22.64,22.64,0,0,0-1.88,4.27A35.93,35.93,0,0,0,.73,50.82a42.54,42.54,0,0,0-.58,4.55C0,56.74,0,58.17,0,59.62a12,12,0,0,0,3.55,9A12.78,12.78,0,0,0,12.7,72H47.37a12.78,12.78,0,0,0,9.15-3.34,12,12,0,0,0,3.55-9C60.07,58.17,60,56.74,59.92,55.36ZM53.61,65.61a8.61,8.61,0,0,1-6.24,2.17H12.7a8.61,8.61,0,0,1-6.24-2.17,7.81,7.81,0,0,1-2.24-6c0-1.35,0-2.68.13-4a38.37,38.37,0,0,1,.53-4.1,31.69,31.69,0,0,1,1-4,18.43,18.43,0,0,1,1.53-3.47,11.92,11.92,0,0,1,2.08-2.73,8.29,8.29,0,0,1,2.71-1.68A9.71,9.71,0,0,1,15.51,39c0.15,0.08.41,0.23,0.84,0.51l3,1.92a20.9,20.9,0,0,0,4.77,2.13,19,19,0,0,0,11.89,0,20.93,20.93,0,0,0,4.77-2.13l3-1.91c0.43-.28.69-0.43,0.84-0.51a9.72,9.72,0,0,1,3.32.64,8.31,8.31,0,0,1,2.71,1.68,11.89,11.89,0,0,1,2.08,2.73,18.37,18.37,0,0,1,1.53,3.47,31.62,31.62,0,0,1,1,4,38.69,38.69,0,0,1,.53,4.1h0c0.09,1.27.13,2.61,0.14,4A7.81,7.81,0,0,1,53.61,65.61Z"/></g></svg>