<svg id="CHAT" xmlns="http://www.w3.org/2000/svg" viewBox="0 0 86.73 65.38"><defs><style>.cls-1{fill:#8dbf43;}</style></defs><title>ZWZ App - iconsonly</title><path class="cls-1" d="M70.75,33.55L66.81,15.72a4.23,4.23,0,0,0,2.67-1.47,5.05,5.05,0,0,0,2.69.77h3.39a1.69,1.69,0,0,0,1.69-1.69V6.55a1.69,1.69,0,0,0-1.69-1.69H72.16a5,5,0,0,0-2.76.82,4.22,4.22,0,0,0-3.17-1.43h-10a4.24,4.24,0,0,0-3.95,2.71h-4a4.4,4.4,0,1,0,0,8.81H57v3.41a1.69,1.69,0,0,0,3.39,0V15.76h3L67.6,35l-8,14.33a5,5,0,0,1-4.33,2.53H35.13A14.25,14.25,0,0,0,21,39.29a14.09,14.09,0,0,0-8.78,3h0a14.15,14.15,0,0,0-5.34,9.5H3.39a22.45,22.45,0,0,1,22.42-22h12a1.72,1.72,0,0,1,1.72,1.72V46.75a1.69,1.69,0,0,0,1.69,1.69h9a10.1,10.1,0,0,0,10.1-10.09V32.72A1.69,1.69,0,0,0,58.68,31h0A1.69,1.69,0,0,0,57,32.72v5.63a6.71,6.71,0,0,1-6.71,6.71H42.94V31.54a5.08,5.08,0,0,0-.6-2.4,5.08,5.08,0,0,0-2.53-9.48H33.62a5.06,5.06,0,0,0-1.69.29V5.08A5.09,5.09,0,0,0,26.85,0H15.92A16,16,0,0,0,.2,13.4a1.69,1.69,0,0,0-.08.51v0a16,16,0,0,0-.12,2v8.81a5.09,5.09,0,0,0,4.32,5l3.75,3.75A25.75,25.75,0,0,0,0,52.24v1.28a1.69,1.69,0,0,0,1.69,1.69h9.52a1.73,1.73,0,0,0,0,.34A9.78,9.78,0,0,0,13.59,62H1.69a1.69,1.69,0,0,0,0,3.39H21a9.84,9.84,0,0,0,9.82-9.82,1.73,1.73,0,0,0,0-.34H55.22a8.37,8.37,0,0,0,6.72-3.39h2.15A9.8,9.8,0,0,0,65.76,62h-22a1.69,1.69,0,0,0,0,3.39H73.18a9.82,9.82,0,0,0,9.09-13.56H85a1.69,1.69,0,0,0,1.69-1.69A16.61,16.61,0,0,0,70.75,33.55ZM33.62,23h6.18a1.69,1.69,0,1,1,0,3.39H33.62A1.69,1.69,0,1,1,33.62,23ZM3.39,15.92c0-.1,0-0.21,0-0.31H21.93a1.69,1.69,0,1,0,0-3.39h-18a12.55,12.55,0,0,1,12-8.83H26.85a1.7,1.7,0,0,1,1.69,1.69V24.73a1.7,1.7,0,0,1-1.69,1.69H5.08a1.7,1.7,0,0,1-1.69-1.69V15.92ZM9.17,29.81H13a25.8,25.8,0,0,0-2.35,1.52ZM27.44,55.56A6.44,6.44,0,0,1,21.07,62H20.81a6.44,6.44,0,0,1-6.24-6.43,1.73,1.73,0,0,0,0-.34H27.47A1.73,1.73,0,0,0,27.44,55.56ZM10.29,51.83a10.78,10.78,0,0,1,4-6.84h0A10.73,10.73,0,0,1,21,42.68a10.86,10.86,0,0,1,10.71,9.15H10.29ZM72.16,8.24h1.69v3.39H72.16A1.69,1.69,0,0,1,72.16,8.24Zm-24.9,3.11a1,1,0,0,1,1-1H52v1.19a4.25,4.25,0,0,0,.08.84H48.28A1,1,0,0,1,47.26,11.35Zm11.43,1H56.24a0.84,0.84,0,0,1-.84-0.84V8.47a0.84,0.84,0,0,1,.84-0.84h10a0.84,0.84,0,0,1,.84.84v3.06a0.84,0.84,0,0,1-.84.84H58.69ZM79.61,55.56A6.44,6.44,0,0,1,73.24,62H73a6.43,6.43,0,0,1-5-10.16H78.42A6.43,6.43,0,0,1,79.61,55.56ZM63.92,48.44l6.46-11.5a13.22,13.22,0,0,1,12.85,11.5H63.92Z"/></svg>