<svg id="NAVIGATION" xmlns="http://www.w3.org/2000/svg" viewBox="0 0 40.73 84.31"><defs><style>.cls-1{fill:gray;}</style></defs><title>Zaatar w Zeit ®</title><g id="bottom_navigation" data-name="bottom navigation"><path class="cls-1" d="M9.49,23.68a1.1,1.1,0,1,1-1.1-1.1A1.1,1.1,0,0,1,9.49,23.68Z"/><path class="cls-1" d="M28.8,24.78a1.1,1.1,0,1,1-1.1-1.1A1.1,1.1,0,0,1,28.8,24.78Z"/><path class="cls-1" d="M29.62,39.32a1.1,1.1,0,1,1-1.1-1.1A1.1,1.1,0,0,1,29.62,39.32Z"/><path class="cls-1" d="M34.79,31.68a1.1,1.1,0,1,1-1.1-1.1A1.1,1.1,0,0,1,34.79,31.68Z"/><path class="cls-1" d="M17.11,32.28a1.1,1.1,0,1,1-1.1-1.1A1.1,1.1,0,0,1,17.11,32.28Z"/><path class="cls-1" d="M39.45,44.84l-0.08,0V13.74a1.23,1.23,0,0,0-1.23-1.23H37.46v0a1.25,1.25,0,0,1,.4-0.93,3.64,3.64,0,0,0,.92-2.44,3.42,3.42,0,0,0-1.35-2.39,3.58,3.58,0,0,1-.56-0.6,3.51,3.51,0,0,1,0-.88,3.32,3.32,0,0,0-.72-2.59A3.33,3.33,0,0,0,33.51,2a3.51,3.51,0,0,1-.88,0A3.53,3.53,0,0,1,32,1.35,3.41,3.41,0,0,0,29.64,0a5.25,5.25,0,0,0-2.92.82,2.87,2.87,0,0,1-1.7.5,2.87,2.87,0,0,1-1.7-.5A5.26,5.26,0,0,0,20.4,0a5.25,5.25,0,0,0-2.92.82,2.87,2.87,0,0,1-1.7.5,2.86,2.86,0,0,1-1.7-.5A5.26,5.26,0,0,0,11.17,0,3.41,3.41,0,0,0,8.78,1.35a3.55,3.55,0,0,1-.61.56A3.51,3.51,0,0,1,7.3,2a3.33,3.33,0,0,0-2.59.72A3.33,3.33,0,0,0,4,5.26a3.54,3.54,0,0,1,0,.88,3.57,3.57,0,0,1-.56.61A3.41,3.41,0,0,0,2,9.13,3.64,3.64,0,0,0,3,11.56a1.24,1.24,0,0,1,.39.92v0H2.58a1.23,1.23,0,0,0-1.23,1.23V31.91A1.89,1.89,0,0,0,0,33.73v45.2a5.39,5.39,0,0,0,5.39,5.39h30a5.39,5.39,0,0,0,5.39-5.39V46.64A1.91,1.91,0,0,0,39.45,44.84ZM24.7,39.68V34.63a22.08,22.08,0,0,0-2.89-10.94,19.71,19.71,0,0,1,3.91-4.29l0,0A19.55,19.55,0,0,1,36.47,15h0l0.22,0h0.22V44Zm-8.27-26.5-0.32.09a3.28,3.28,0,0,0-2,1.53,3.33,3.33,0,0,0-.32.75,21.89,21.89,0,0,0-4.17-1.9v-3.3a0.84,0.84,0,0,1,.84-0.84h5.13a0.84,0.84,0,0,1,.84.84v2.83ZM16.32,17.3l-0.17-.63a0.84,0.84,0,0,1,.59-1l5-1.33a0.84,0.84,0,0,1,1,.59L23.56,18c-0.52.46-1,.94-1.49,1.44a22.21,22.21,0,0,0-1.7,2A22.13,22.13,0,0,0,16.32,17.3Zm9.34-.93L25.1,14.28a3.31,3.31,0,0,0-.17-0.47,4,4,0,0,1,4.77.37A22,22,0,0,0,25.66,16.37ZM5.09,8.52A4.42,4.42,0,0,0,6.21,7.08a4.57,4.57,0,0,0,.24-1.86,5.41,5.41,0,0,1,0-.79,5.42,5.42,0,0,1,.79,0,4.57,4.57,0,0,0,1.86-.24,4.43,4.43,0,0,0,1.44-1.13,3.8,3.8,0,0,1,.65-0.59,2.87,2.87,0,0,1,1.67.5,5.25,5.25,0,0,0,2.92.82A5.26,5.26,0,0,0,18.7,3a3.17,3.17,0,0,1,3.4,0A5.26,5.26,0,0,0,25,3.77,5.25,5.25,0,0,0,27.94,3a2.86,2.86,0,0,1,1.66-.49,3.78,3.78,0,0,1,.65.59,4.42,4.42,0,0,0,1.44,1.13,4.58,4.58,0,0,0,1.86.24,5.25,5.25,0,0,1,.79,0,5.49,5.49,0,0,1,0,.78,4.58,4.58,0,0,0,.24,1.86,4.44,4.44,0,0,0,1.12,1.44,3.77,3.77,0,0,1,.59.65,1.26,1.26,0,0,1-.39.89l-0.14.19a11.19,11.19,0,0,0-7.49-4.18A1.23,1.23,0,1,0,28,8.51a8.73,8.73,0,0,1,6.54,4.3,22.16,22.16,0,0,0-2.32.51,6.42,6.42,0,0,0-9.09-1.24,3.29,3.29,0,0,0-2.07-.12l-1.24.33a8.74,8.74,0,0,1,3.62-3.06,1.23,1.23,0,1,0-1-2.24A11.16,11.16,0,0,0,18.8,9.62a3.3,3.3,0,0,0-3.21-2.56H10.46a3.3,3.3,0,0,0-3.3,3.3V13q-0.68-.14-1.37-0.24c0-.09,0-0.17,0-0.26A3.64,3.64,0,0,0,4.89,10,1.25,1.25,0,0,1,4.5,9.17,3.82,3.82,0,0,1,5.09,8.52ZM38.27,78.92a2.93,2.93,0,0,1-2.93,2.93h-30a2.93,2.93,0,0,1-2.93-2.93V34.51l2.92,1a1.23,1.23,0,0,0,.81-2.32l-2.38-.83V15l0.28,0a19.58,19.58,0,0,1,4,.71A19.5,19.5,0,0,1,14.49,19a19.69,19.69,0,0,1,4.83,5.32,19.63,19.63,0,0,1,2.92,10.32v4.19l-11.54-4a1.23,1.23,0,0,0-.81,2.32L38.27,47V78.92Z"/><path class="cls-1" d="M16.35,59.81c-3.38,2.5-6.11,2.35-7.57,1.94-0.18-.05-0.16,0-0.19,0s0,0.18.49,0.3a2.13,2.13,0,0,1,1,.25,4.93,4.93,0,0,0,1.86,1.93c1.21,0.65,3.38.75,5.39-1.71s3.9-4.74,4.09-4.93a10.91,10.91,0,0,1-5.23-.3c-6.9-2.3-6.74,3.6-6.47,4.27,0,0,2.35.57,6.63-1.8,0.24-.14.17-0.06,0,0"/><path class="cls-1" d="M20.19,64c1.15-1.24,3.42-4.68,5.67-6.33a4,4,0,0,1,6.21,2.74c0.5,2.86-1.9,4.66-4.47,4.14A32,32,0,0,0,20.19,64m10.58-4.89c0.05,0,.1,0-0.12-0.25a3.29,3.29,0,0,0-2-1.19,4,4,0,0,0-2.86.79c-0.25.18-.34,0.29,0,0.08a4.13,4.13,0,0,1,2.72-.42,4.69,4.69,0,0,1,2,.79l0.24,0.19"/></g></svg>