<svg id="NAVIGATION" xmlns="http://www.w3.org/2000/svg" viewBox="0 0 72 72"><defs><style>.cls-1{fill:gray;}</style></defs><title>Zaatar w Zeit ®</title><g id="bottom_navigation" data-name="bottom navigation"><path class="cls-1" d="M22.5,0H0V22.5H22.5V0ZM18,18H4.5V4.5H18V18Z"/><rect class="cls-1" x="9" y="9" width="4.5" height="4.5"/><path class="cls-1" d="M49.5,0V22.5H72V0H49.5Zm18,18H54V4.5H67.5V18Z"/><rect class="cls-1" x="58.5" y="9" width="4.5" height="4.5"/><path class="cls-1" d="M0,72H22.5V49.5H0V72ZM4.5,54H18V67.5H4.5V54Z"/><rect class="cls-1" x="9" y="58.5" width="4.5" height="4.5"/><rect class="cls-1" x="36" width="9" height="4.5"/><polygon class="cls-1" points="36 18 40.5 18 40.5 13.5 45 13.5 45 9 31.5 9 31.5 4.5 27 4.5 27 9 27 11.25 27 13.5 36 13.5 36 18"/><rect class="cls-1" x="27" y="18" width="4.5" height="4.5"/><polygon class="cls-1" points="45 22.5 40.5 22.5 40.5 27 27 27 27 31.5 45 31.5 45 22.5"/><polygon class="cls-1" points="4.5 40.5 9 40.5 9 36 4.5 36 4.5 27 0 27 0 45 4.5 45 4.5 40.5"/><rect class="cls-1" x="9" y="27" width="4.5" height="4.5"/><polygon class="cls-1" points="27 45 36 45 36 40.5 31.5 40.5 31.5 36 22.5 36 22.5 27 18 27 18 36 13.5 36 13.5 45 18 45 18 40.5 20.25 40.5 22.5 40.5 27 40.5 27 45"/><rect class="cls-1" x="40.5" y="36" width="4.5" height="9"/><polygon class="cls-1" points="40.5 49.5 27 49.5 27 54 36 54 36 67.5 27 67.5 27 72 40.5 72 40.5 67.5 49.5 67.5 49.5 63 40.5 63 40.5 49.5"/><rect class="cls-1" x="27" y="58.5" width="4.5" height="4.5"/><rect class="cls-1" x="45" y="49.5" width="4.5" height="9"/><polygon class="cls-1" points="67.5 58.5 54 58.5 54 72 58.5 72 58.5 63 67.5 63 67.5 58.5"/><rect class="cls-1" x="63" y="67.5" width="9" height="4.5"/><rect class="cls-1" x="67.5" y="49.5" width="4.5" height="4.5"/><polygon class="cls-1" points="54 54 58.5 54 58.5 40.5 49.5 40.5 49.5 45 54 45 54 54"/><polygon class="cls-1" points="63 31.5 58.5 31.5 58.5 27 54 27 54 31.5 49.5 31.5 49.5 36 67.5 36 67.5 31.5 72 31.5 72 27 63 27 63 31.5"/><rect class="cls-1" x="63" y="40.5" width="9" height="4.5"/></g></svg>