<svg id="CHAT" xmlns="http://www.w3.org/2000/svg" viewBox="0 0 90.06 54.04"><defs><style>.cls-1{fill:#8dbf43;}</style></defs><title>ZWZ App - iconsonly</title><path class="cls-1" d="M0,42H7.15l5.17,10.35A3,3,0,0,0,15,54h60a3,3,0,0,0,2.7-1.66L82.91,42h7.15V36H0v6Zm73.2,6H16.87l-3-6H76.2Z"/><path class="cls-1" d="M40.23,30h6a4.65,4.65,0,0,1,1.23-3.24,10.83,10.83,0,0,0,0-13.51,4.9,4.9,0,0,1,0-6.51A10.48,10.48,0,0,0,49.84,0h-6a4.66,4.66,0,0,1-1.24,3.25,10.84,10.84,0,0,0,0,13.51,4.89,4.89,0,0,1,0,6.5A10.48,10.48,0,0,0,40.23,30Z"/><path class="cls-1" d="M58.24,30h6a4.65,4.65,0,0,1,1.23-3.24,10.83,10.83,0,0,0,0-13.51,4.9,4.9,0,0,1,0-6.51A10.48,10.48,0,0,0,67.85,0h-6a4.66,4.66,0,0,1-1.24,3.25,10.84,10.84,0,0,0,0,13.51,4.89,4.89,0,0,1,0,6.5A10.48,10.48,0,0,0,58.24,30Z"/><path class="cls-1" d="M22.22,30h6a4.65,4.65,0,0,1,1.23-3.24,10.83,10.83,0,0,0,0-13.51,4.9,4.9,0,0,1,0-6.51A10.48,10.48,0,0,0,31.82,0h-6a4.66,4.66,0,0,1-1.24,3.25,10.84,10.84,0,0,0,0,13.51,4.89,4.89,0,0,1,0,6.5A10.48,10.48,0,0,0,22.22,30Z"/></svg>