<svg id="CHAT" xmlns="http://www.w3.org/2000/svg" viewBox="0 0 68.01 72.54"><defs><style>.cls-1{fill:#8dbf43;}</style></defs><title>Zaatar w Zeit ®</title><g id="validate"><path class="cls-1" d="M41.94,24.94H19.27a1.13,1.13,0,1,1,0-2.27H41.94A1.13,1.13,0,1,1,41.94,24.94Z"/><path class="cls-1" d="M41.94,34H19.27a1.13,1.13,0,0,1,0-2.27H41.94A1.13,1.13,0,1,1,41.94,34Z"/><path class="cls-1" d="M35.14,43.07H19.27a1.13,1.13,0,0,1,0-2.27H35.14A1.13,1.13,0,0,1,35.14,43.07Z"/><path class="cls-1" d="M29.47,52.14H19.27a1.13,1.13,0,0,1,0-2.27h10.2A1.13,1.13,0,0,1,29.47,52.14Z"/><circle class="cls-1" cx="11.33" cy="23.8" r="2.27"/><circle class="cls-1" cx="11.33" cy="32.87" r="2.27"/><circle class="cls-1" cx="11.33" cy="41.94" r="2.27"/><circle class="cls-1" cx="11.33" cy="51" r="2.27"/><path class="cls-1" d="M37.4,72.54H3.4A3.4,3.4,0,0,1,0,69.14V3.4A3.4,3.4,0,0,1,3.4,0H36.27a1.13,1.13,0,0,1,.8.33L51.81,15.07a1.13,1.13,0,0,1,.33.8V34H49.87V16.34L35.8,2.27H3.4A1.13,1.13,0,0,0,2.27,3.4V69.14A1.13,1.13,0,0,0,3.4,70.27h34v2.27Z"/><path class="cls-1" d="M49.87,17H37.4a2.27,2.27,0,0,1-2.27-2.27V10.2a1.13,1.13,0,0,1,2.27,0v4.53H49.87A1.13,1.13,0,1,1,49.87,17Z"/><path class="cls-1" d="M51,72.54a17,17,0,1,1,17-17A17,17,0,0,1,51,72.54ZM51,40.8A14.73,14.73,0,1,0,65.74,55.54,14.75,14.75,0,0,0,51,40.8Z"/><path class="cls-1" d="M49.87,62.34a1.13,1.13,0,0,1-.8-0.33L43.4,56.34a1.13,1.13,0,0,1,1.6-1.6l4.71,4.71,7.16-10.23a1.13,1.13,0,1,1,1.86,1.3L50.8,61.86a1.13,1.13,0,0,1-.83.48h-0.1Z"/></g></svg>