<svg id="NAVIGATION" xmlns="http://www.w3.org/2000/svg" viewBox="0 0 60.07 72"><defs><style>.cls-1{fill:#8dbf43;}</style></defs><title>Zaatar w Zeit ®</title><g id="bottom_navigation" data-name="bottom navigation"><path class="cls-1" d="M29.58,34.68A16.78,16.78,0,0,0,41.84,29.6a16.78,16.78,0,0,0,5.08-12.26A16.78,16.78,0,0,0,41.84,5.08,16.78,16.78,0,0,0,29.58,0,16.78,16.78,0,0,0,17.32,5.08a16.78,16.78,0,0,0-5.08,12.26A16.78,16.78,0,0,0,17.32,29.6,16.79,16.79,0,0,0,29.58,34.68Z"/><path class="cls-1" d="M59.92,55.36a42.83,42.83,0,0,0-.58-4.55,35.84,35.84,0,0,0-1.12-4.57A22.6,22.6,0,0,0,56.34,42a16.08,16.08,0,0,0-2.84-3.7,12.5,12.5,0,0,0-4.07-2.56,14.08,14.08,0,0,0-5.2-.94A5.28,5.28,0,0,0,41.41,36l-2.94,1.89a16.82,16.82,0,0,1-3.8,1.67,14.75,14.75,0,0,1-9.29,0,16.77,16.77,0,0,1-3.8-1.67L18.65,36a5.27,5.27,0,0,0-2.82-1.2,14.06,14.06,0,0,0-5.2.94,12.49,12.49,0,0,0-4.07,2.56A16.08,16.08,0,0,0,3.73,42a22.64,22.64,0,0,0-1.88,4.27A35.93,35.93,0,0,0,.73,50.82a42.54,42.54,0,0,0-.58,4.55C0,56.74,0,58.17,0,59.62a12,12,0,0,0,3.55,9A12.78,12.78,0,0,0,12.7,72H47.37a12.78,12.78,0,0,0,9.15-3.34,12,12,0,0,0,3.55-9C60.07,58.17,60,56.74,59.92,55.36Z"/></g></svg>